<mxfile host="app.diagrams.net" agent="Mozilla/5.0 (Macintosh; Intel Mac OS X 10_15_7) AppleWebKit/605.1.15 (KHTML, like Gecko) Version/18.4 Safari/605.1.15" version="27.0.5">
  <diagram id="prtHgNgQTEPvFCAcTncT" name="Page-1">
    <mxGraphModel dx="1084" dy="738" grid="1" gridSize="10" guides="1" tooltips="1" connect="1" arrows="1" fold="1" page="1" pageScale="1" pageWidth="1654" pageHeight="1169" math="0" shadow="0">
      <root>
        <mxCell id="0" />
        <mxCell id="1" parent="0" />
        <mxCell id="1gjFQMWOfMvFAkVTUsUI-46" value="&lt;div&gt;&lt;br&gt;&lt;/div&gt;&lt;div&gt;&lt;br&gt;&lt;/div&gt;&lt;div&gt;&lt;br&gt;&lt;/div&gt;&lt;div&gt;&lt;br&gt;&lt;/div&gt;&lt;div&gt;&lt;br&gt;&lt;/div&gt;&lt;div&gt;&lt;br&gt;&lt;/div&gt;&lt;div&gt;&lt;br&gt;&lt;/div&gt;&lt;div&gt;&lt;br&gt;&lt;/div&gt;&lt;div&gt;&lt;br&gt;&lt;/div&gt;&lt;div&gt;&lt;br&gt;&lt;/div&gt;&lt;div&gt;&lt;br&gt;&lt;/div&gt;&lt;div&gt;&lt;br&gt;&lt;/div&gt;&lt;div&gt;&lt;br&gt;&lt;/div&gt;&lt;div&gt;&lt;br&gt;&lt;/div&gt;&lt;div&gt;&lt;br&gt;&lt;/div&gt;" style="rounded=1;whiteSpace=wrap;html=1;fontFamily=Helvetica;dashed=1;" vertex="1" parent="1">
          <mxGeometry x="260" y="529.5" width="500" height="290.5" as="geometry" />
        </mxCell>
        <mxCell id="1gjFQMWOfMvFAkVTUsUI-71" style="edgeStyle=orthogonalEdgeStyle;rounded=0;orthogonalLoop=1;jettySize=auto;html=1;exitX=1;exitY=0.5;exitDx=0;exitDy=0;" edge="1" parent="1" source="1gjFQMWOfMvFAkVTUsUI-41" target="1gjFQMWOfMvFAkVTUsUI-46">
          <mxGeometry relative="1" as="geometry" />
        </mxCell>
        <mxCell id="1gjFQMWOfMvFAkVTUsUI-41" value="&lt;div&gt;&lt;br&gt;&lt;/div&gt;&lt;div&gt;&lt;br&gt;&lt;/div&gt;&lt;div&gt;&lt;br&gt;&lt;/div&gt;&lt;div&gt;&lt;br&gt;&lt;/div&gt;&lt;div&gt;&lt;br&gt;&lt;/div&gt;&lt;div&gt;&lt;br&gt;&lt;/div&gt;&lt;div&gt;&lt;br&gt;&lt;/div&gt;&lt;div&gt;&lt;br&gt;&lt;/div&gt;&lt;div&gt;&lt;br&gt;&lt;/div&gt;&lt;div&gt;&lt;br&gt;&lt;/div&gt;&lt;div&gt;&lt;br&gt;&lt;/div&gt;&lt;div&gt;&lt;br&gt;&lt;/div&gt;&lt;div&gt;&lt;br&gt;&lt;/div&gt;&lt;div&gt;&lt;br&gt;&lt;/div&gt;&lt;div&gt;&lt;br&gt;&lt;/div&gt;" style="rounded=1;whiteSpace=wrap;html=1;fontFamily=Helvetica;dashed=1;" vertex="1" parent="1">
          <mxGeometry x="18" y="529.5" width="172" height="290.5" as="geometry" />
        </mxCell>
        <mxCell id="1gjFQMWOfMvFAkVTUsUI-27" value="&lt;div&gt;&lt;br&gt;&lt;/div&gt;&lt;div&gt;&lt;br&gt;&lt;/div&gt;&lt;div&gt;&lt;br&gt;&lt;/div&gt;&lt;div&gt;&lt;br&gt;&lt;/div&gt;&lt;div&gt;&lt;br&gt;&lt;/div&gt;&lt;div&gt;&lt;br&gt;&lt;/div&gt;&lt;div&gt;&lt;br&gt;&lt;/div&gt;&lt;div&gt;&lt;br&gt;&lt;/div&gt;&lt;div&gt;&lt;br&gt;&lt;/div&gt;&lt;div&gt;&lt;br&gt;&lt;/div&gt;" style="rounded=1;whiteSpace=wrap;html=1;fontFamily=Helvetica;movable=1;resizable=1;rotatable=1;deletable=1;editable=1;locked=0;connectable=1;" vertex="1" parent="1">
          <mxGeometry x="50" y="589" width="120" height="211" as="geometry" />
        </mxCell>
        <mxCell id="1gjFQMWOfMvFAkVTUsUI-7" value="&lt;div&gt;&lt;br&gt;&lt;/div&gt;&lt;div&gt;&lt;br&gt;&lt;/div&gt;&lt;div&gt;&lt;br&gt;&lt;/div&gt;&lt;div&gt;&lt;br&gt;&lt;/div&gt;&lt;div&gt;&lt;br&gt;&lt;/div&gt;&lt;div&gt;&lt;br&gt;&lt;/div&gt;&lt;div&gt;&lt;br&gt;&lt;/div&gt;&lt;div&gt;&lt;br&gt;&lt;/div&gt;&lt;div&gt;&lt;br&gt;&lt;/div&gt;&lt;div&gt;&lt;br&gt;&lt;/div&gt;&lt;div&gt;&lt;br&gt;&lt;/div&gt;&lt;div&gt;&lt;br&gt;&lt;/div&gt;&lt;div&gt;&lt;br&gt;&lt;/div&gt;&lt;div&gt;&lt;br&gt;&lt;/div&gt;&lt;div&gt;&lt;br&gt;&lt;/div&gt;" style="rounded=1;whiteSpace=wrap;html=1;fontFamily=Helvetica;dashed=1;" vertex="1" parent="1">
          <mxGeometry x="220" y="170" width="540" height="330" as="geometry" />
        </mxCell>
        <mxCell id="1gjFQMWOfMvFAkVTUsUI-3" value="&lt;div&gt;&lt;br&gt;&lt;/div&gt;&lt;div&gt;&lt;br&gt;&lt;/div&gt;&lt;div&gt;&lt;br&gt;&lt;/div&gt;&lt;div&gt;&lt;br&gt;&lt;/div&gt;&lt;div&gt;&lt;br&gt;&lt;/div&gt;&lt;div&gt;&lt;br&gt;&lt;/div&gt;&lt;div&gt;&lt;br&gt;&lt;/div&gt;&lt;div&gt;&lt;br&gt;&lt;/div&gt;&lt;div&gt;&lt;br&gt;&lt;/div&gt;&lt;div&gt;&lt;br&gt;&lt;/div&gt;&lt;div&gt;&lt;br&gt;&lt;/div&gt;&lt;div&gt;&lt;br&gt;&lt;/div&gt;&lt;div&gt;&lt;br&gt;&lt;/div&gt;&lt;div&gt;&lt;br&gt;&lt;/div&gt;&lt;div&gt;&lt;br&gt;&lt;/div&gt;" style="rounded=1;whiteSpace=wrap;html=1;fontFamily=Helvetica;dashed=1;" vertex="1" parent="1">
          <mxGeometry x="20" y="170" width="160" height="330" as="geometry" />
        </mxCell>
        <mxCell id="zAK88xkyq2ZjwmS9hykI-196" style="edgeStyle=orthogonalEdgeStyle;rounded=0;orthogonalLoop=1;jettySize=auto;html=1;exitX=0.5;exitY=1;exitDx=0;exitDy=0;exitPerimeter=0;entryX=0.5;entryY=0;entryDx=0;entryDy=0;" parent="1" source="zAK88xkyq2ZjwmS9hykI-3" target="zAK88xkyq2ZjwmS9hykI-158" edge="1">
          <mxGeometry relative="1" as="geometry" />
        </mxCell>
        <mxCell id="zAK88xkyq2ZjwmS9hykI-3" value="Java Projects" style="shape=cylinder3;whiteSpace=wrap;html=1;boundedLbl=1;backgroundOutline=1;size=15;fontFamily=Helvetica;" parent="1" vertex="1">
          <mxGeometry x="56" y="230" width="90" height="70" as="geometry" />
        </mxCell>
        <mxCell id="1gjFQMWOfMvFAkVTUsUI-52" style="edgeStyle=orthogonalEdgeStyle;rounded=0;orthogonalLoop=1;jettySize=auto;html=1;exitX=0.5;exitY=1;exitDx=0;exitDy=0;" edge="1" parent="1" source="zAK88xkyq2ZjwmS9hykI-158" target="1gjFQMWOfMvFAkVTUsUI-1">
          <mxGeometry relative="1" as="geometry" />
        </mxCell>
        <mxCell id="zAK88xkyq2ZjwmS9hykI-158" value="&lt;div&gt;Collect Performance Patches&lt;/div&gt;" style="rounded=1;whiteSpace=wrap;html=1;fontFamily=Helvetica;" parent="1" vertex="1">
          <mxGeometry x="41" y="327" width="120" height="52" as="geometry" />
        </mxCell>
        <mxCell id="zAK88xkyq2ZjwmS9hykI-227" value="&lt;div&gt;&lt;br&gt;&lt;/div&gt;&lt;div&gt;&lt;br&gt;&lt;/div&gt;&lt;div&gt;&lt;br&gt;&lt;/div&gt;&lt;div&gt;&lt;br&gt;&lt;/div&gt;&lt;div&gt;&lt;br&gt;&lt;/div&gt;&lt;div&gt;&lt;br&gt;&lt;/div&gt;&lt;div&gt;&lt;br&gt;&lt;/div&gt;&lt;div&gt;&lt;br&gt;&lt;/div&gt;&lt;div&gt;&lt;br&gt;&lt;/div&gt;&lt;div&gt;&lt;br&gt;&lt;/div&gt;" style="rounded=1;whiteSpace=wrap;html=1;fontFamily=Helvetica;" parent="1" vertex="1">
          <mxGeometry x="275" y="588.5" width="225" height="111.5" as="geometry" />
        </mxCell>
        <mxCell id="1gjFQMWOfMvFAkVTUsUI-23" style="edgeStyle=orthogonalEdgeStyle;rounded=0;orthogonalLoop=1;jettySize=auto;html=1;exitX=1;exitY=0.5;exitDx=0;exitDy=0;exitPerimeter=0;entryX=0;entryY=0.5;entryDx=0;entryDy=0;" edge="1" parent="1" source="1gjFQMWOfMvFAkVTUsUI-1" target="zAK88xkyq2ZjwmS9hykI-94">
          <mxGeometry relative="1" as="geometry" />
        </mxCell>
        <mxCell id="1gjFQMWOfMvFAkVTUsUI-39" style="edgeStyle=orthogonalEdgeStyle;rounded=0;orthogonalLoop=1;jettySize=auto;html=1;exitX=0.5;exitY=1;exitDx=0;exitDy=0;exitPerimeter=0;entryX=0;entryY=0.5;entryDx=0;entryDy=0;" edge="1" parent="1" source="1gjFQMWOfMvFAkVTUsUI-1" target="1gjFQMWOfMvFAkVTUsUI-28">
          <mxGeometry relative="1" as="geometry">
            <mxPoint x="130" y="690" as="targetPoint" />
            <Array as="points">
              <mxPoint x="101" y="510" />
              <mxPoint x="40" y="510" />
              <mxPoint x="40" y="652" />
            </Array>
          </mxGeometry>
        </mxCell>
        <mxCell id="1gjFQMWOfMvFAkVTUsUI-1" value="PerfOpt&lt;div&gt;Dataset&lt;/div&gt;&lt;div&gt;(xx tasks)&lt;/div&gt;" style="shape=cylinder3;whiteSpace=wrap;html=1;boundedLbl=1;backgroundOutline=1;size=15;fontFamily=Helvetica;" vertex="1" parent="1">
          <mxGeometry x="56" y="410" width="90" height="80" as="geometry" />
        </mxCell>
        <mxCell id="1gjFQMWOfMvFAkVTUsUI-4" value="&lt;div&gt;&lt;b&gt;Step 1:&lt;/b&gt;&lt;/div&gt;Data Collection" style="text;html=1;align=center;verticalAlign=middle;resizable=0;points=[];autosize=1;strokeColor=none;fillColor=none;" vertex="1" parent="1">
          <mxGeometry x="51" y="175" width="100" height="40" as="geometry" />
        </mxCell>
        <mxCell id="1gjFQMWOfMvFAkVTUsUI-5" value="" style="group" vertex="1" connectable="0" parent="1">
          <mxGeometry x="240" y="230" width="120" height="200" as="geometry" />
        </mxCell>
        <mxCell id="zAK88xkyq2ZjwmS9hykI-94" value="Prompts Generation&lt;div&gt;&lt;br&gt;&lt;/div&gt;&lt;div&gt;&lt;br&gt;&lt;/div&gt;&lt;div&gt;&lt;br&gt;&lt;/div&gt;&lt;div&gt;&lt;br&gt;&lt;/div&gt;&lt;div&gt;&lt;br&gt;&lt;/div&gt;&lt;div&gt;&lt;br&gt;&lt;/div&gt;&lt;div&gt;&lt;br&gt;&lt;/div&gt;&lt;div&gt;&lt;br&gt;&lt;/div&gt;&lt;div&gt;&lt;br&gt;&lt;/div&gt;&lt;div&gt;&lt;br&gt;&lt;/div&gt;&lt;div&gt;&lt;br&gt;&lt;/div&gt;" style="rounded=1;whiteSpace=wrap;html=1;fontFamily=Helvetica;" parent="1gjFQMWOfMvFAkVTUsUI-5" vertex="1">
          <mxGeometry width="120" height="200" as="geometry" />
        </mxCell>
        <mxCell id="zAK88xkyq2ZjwmS9hykI-127" value="Few-shot&lt;div&gt;(Unit Test)&lt;/div&gt;" style="rounded=0;whiteSpace=wrap;html=1;fontFamily=Helvetica;dashed=1;" parent="1gjFQMWOfMvFAkVTUsUI-5" vertex="1">
          <mxGeometry x="10" y="40" width="100" height="40" as="geometry" />
        </mxCell>
        <mxCell id="zAK88xkyq2ZjwmS9hykI-128" value="Hint-enhanced (Perf Issue)" style="rounded=0;whiteSpace=wrap;html=1;fontFamily=Helvetica;dashed=1;" parent="1gjFQMWOfMvFAkVTUsUI-5" vertex="1">
          <mxGeometry x="10" y="90" width="100" height="50" as="geometry" />
        </mxCell>
        <mxCell id="zAK88xkyq2ZjwmS9hykI-129" value="Hint-enhanced&lt;div&gt;&lt;span style=&quot;background-color: transparent; color: light-dark(rgb(0, 0, 0), rgb(255, 255, 255));&quot;&gt;(JMH)&lt;/span&gt;&lt;/div&gt;" style="rounded=0;whiteSpace=wrap;html=1;fontFamily=Helvetica;dashed=1;" parent="1gjFQMWOfMvFAkVTUsUI-5" vertex="1">
          <mxGeometry x="10" y="150" width="100" height="40" as="geometry" />
        </mxCell>
        <mxCell id="1gjFQMWOfMvFAkVTUsUI-14" style="edgeStyle=orthogonalEdgeStyle;rounded=0;orthogonalLoop=1;jettySize=auto;html=1;exitX=1;exitY=0.5;exitDx=0;exitDy=0;exitPerimeter=0;entryX=0;entryY=0.5;entryDx=0;entryDy=0;" edge="1" parent="1" source="1gjFQMWOfMvFAkVTUsUI-6" target="zAK88xkyq2ZjwmS9hykI-26">
          <mxGeometry relative="1" as="geometry">
            <Array as="points">
              <mxPoint x="500" y="330" />
            </Array>
          </mxGeometry>
        </mxCell>
        <mxCell id="1gjFQMWOfMvFAkVTUsUI-6" value="Prompt&lt;div&gt;Combinations&lt;/div&gt;&lt;div&gt;(xx prompts)&lt;/div&gt;" style="shape=cylinder3;whiteSpace=wrap;html=1;boundedLbl=1;backgroundOutline=1;size=15;fontFamily=Helvetica;" vertex="1" parent="1">
          <mxGeometry x="381" y="285" width="90" height="90" as="geometry" />
        </mxCell>
        <mxCell id="1gjFQMWOfMvFAkVTUsUI-8" value="&lt;div&gt;&lt;b&gt;Step 2:&lt;/b&gt;&lt;/div&gt;Generating LLM Optimizations" style="text;html=1;align=center;verticalAlign=middle;resizable=0;points=[];autosize=1;strokeColor=none;fillColor=none;" vertex="1" parent="1">
          <mxGeometry x="395" y="175" width="190" height="40" as="geometry" />
        </mxCell>
        <mxCell id="1gjFQMWOfMvFAkVTUsUI-11" value="" style="edgeStyle=orthogonalEdgeStyle;rounded=0;orthogonalLoop=1;jettySize=auto;html=1;" edge="1" parent="1" source="zAK88xkyq2ZjwmS9hykI-94" target="1gjFQMWOfMvFAkVTUsUI-6">
          <mxGeometry relative="1" as="geometry" />
        </mxCell>
        <mxCell id="1gjFQMWOfMvFAkVTUsUI-16" value="Error-guided&lt;div&gt;Repair&lt;/div&gt;" style="text;html=1;align=center;verticalAlign=middle;resizable=0;points=[];autosize=1;strokeColor=none;fillColor=none;" vertex="1" parent="1">
          <mxGeometry x="405" y="410" width="90" height="40" as="geometry" />
        </mxCell>
        <mxCell id="1gjFQMWOfMvFAkVTUsUI-19" value="" style="group" vertex="1" connectable="0" parent="1">
          <mxGeometry x="477" y="230" width="150" height="220" as="geometry" />
        </mxCell>
        <mxCell id="zAK88xkyq2ZjwmS9hykI-26" value="Run LLMs&lt;div&gt;&lt;br&gt;&lt;/div&gt;&lt;div&gt;&lt;br&gt;&lt;/div&gt;&lt;div&gt;&lt;br&gt;&lt;/div&gt;&lt;div&gt;&lt;br&gt;&lt;/div&gt;&lt;div&gt;&lt;br&gt;&lt;/div&gt;&lt;div&gt;&lt;br&gt;&lt;/div&gt;&lt;div&gt;&lt;br&gt;&lt;/div&gt;&lt;div&gt;&lt;br&gt;&lt;/div&gt;&lt;div&gt;&lt;br&gt;&lt;/div&gt;&lt;div&gt;&lt;br&gt;&lt;/div&gt;&lt;div&gt;&lt;br&gt;&lt;/div&gt;" style="rounded=1;whiteSpace=wrap;html=1;align=center;fontFamily=Helvetica;" parent="1gjFQMWOfMvFAkVTUsUI-19" vertex="1">
          <mxGeometry x="30" width="120" height="200" as="geometry" />
        </mxCell>
        <mxCell id="zAK88xkyq2ZjwmS9hykI-120" value="OpenAI-o4-mini" style="rounded=0;whiteSpace=wrap;html=1;dashed=1;fontFamily=Helvetica;" parent="1gjFQMWOfMvFAkVTUsUI-19" vertex="1">
          <mxGeometry x="40" y="35" width="100" height="30" as="geometry" />
        </mxCell>
        <mxCell id="zAK88xkyq2ZjwmS9hykI-121" value="DeepSeek-V3" style="rounded=0;whiteSpace=wrap;html=1;strokeColor=default;dashed=1;fontFamily=Helvetica;" parent="1gjFQMWOfMvFAkVTUsUI-19" vertex="1">
          <mxGeometry x="40" y="80" width="100" height="30" as="geometry" />
        </mxCell>
        <mxCell id="zAK88xkyq2ZjwmS9hykI-122" value="gemini-2.0-pro" style="rounded=0;whiteSpace=wrap;html=1;dashed=1;fontFamily=Helvetica;" parent="1gjFQMWOfMvFAkVTUsUI-19" vertex="1">
          <mxGeometry x="40" y="120" width="100" height="30" as="geometry" />
        </mxCell>
        <mxCell id="zAK88xkyq2ZjwmS9hykI-142" value="claude-4-sonnet" style="rounded=0;whiteSpace=wrap;html=1;dashed=1;fontFamily=Helvetica;" parent="1gjFQMWOfMvFAkVTUsUI-19" vertex="1">
          <mxGeometry x="40" y="160" width="100" height="30" as="geometry" />
        </mxCell>
        <mxCell id="1gjFQMWOfMvFAkVTUsUI-15" style="edgeStyle=orthogonalEdgeStyle;rounded=0;orthogonalLoop=1;jettySize=auto;html=1;entryX=0.017;entryY=0.685;entryDx=0;entryDy=0;entryPerimeter=0;exitX=0.5;exitY=1;exitDx=0;exitDy=0;" edge="1" parent="1gjFQMWOfMvFAkVTUsUI-19" source="zAK88xkyq2ZjwmS9hykI-26" target="zAK88xkyq2ZjwmS9hykI-26">
          <mxGeometry relative="1" as="geometry">
            <mxPoint x="20" y="138" as="targetPoint" />
            <Array as="points">
              <mxPoint x="90" y="220" />
              <mxPoint y="220" />
              <mxPoint y="137" />
            </Array>
          </mxGeometry>
        </mxCell>
        <mxCell id="1gjFQMWOfMvFAkVTUsUI-42" style="edgeStyle=orthogonalEdgeStyle;rounded=0;orthogonalLoop=1;jettySize=auto;html=1;exitX=0.5;exitY=1;exitDx=0;exitDy=0;exitPerimeter=0;entryX=1;entryY=0.5;entryDx=0;entryDy=0;" edge="1" parent="1" source="1gjFQMWOfMvFAkVTUsUI-20" target="1gjFQMWOfMvFAkVTUsUI-30">
          <mxGeometry relative="1" as="geometry">
            <Array as="points">
              <mxPoint x="695" y="470" />
              <mxPoint x="180" y="470" />
              <mxPoint x="180" y="765" />
            </Array>
          </mxGeometry>
        </mxCell>
        <mxCell id="1gjFQMWOfMvFAkVTUsUI-20" value="LLM Patches&lt;div&gt;(xx patches)&lt;/div&gt;" style="shape=cylinder3;whiteSpace=wrap;html=1;boundedLbl=1;backgroundOutline=1;size=15;fontFamily=Helvetica;" vertex="1" parent="1">
          <mxGeometry x="650" y="285" width="90" height="90" as="geometry" />
        </mxCell>
        <mxCell id="1gjFQMWOfMvFAkVTUsUI-22" value="" style="edgeStyle=orthogonalEdgeStyle;rounded=0;orthogonalLoop=1;jettySize=auto;html=1;" edge="1" parent="1" source="zAK88xkyq2ZjwmS9hykI-26" target="1gjFQMWOfMvFAkVTUsUI-20">
          <mxGeometry relative="1" as="geometry" />
        </mxCell>
        <mxCell id="1gjFQMWOfMvFAkVTUsUI-25" value="&lt;div&gt;&lt;b&gt;Step 3:&lt;/b&gt;&lt;/div&gt;&lt;div&gt;JMH Execution&lt;/div&gt;" style="text;html=1;align=center;verticalAlign=middle;resizable=0;points=[];autosize=1;strokeColor=none;fillColor=none;" vertex="1" parent="1">
          <mxGeometry x="54" y="545" width="100" height="40" as="geometry" />
        </mxCell>
        <mxCell id="1gjFQMWOfMvFAkVTUsUI-28" value="Original Code" style="rounded=0;whiteSpace=wrap;html=1;fontFamily=Helvetica;dashed=1;" vertex="1" parent="1">
          <mxGeometry x="60" y="632" width="100" height="40" as="geometry" />
        </mxCell>
        <mxCell id="1gjFQMWOfMvFAkVTUsUI-29" value="Developer Patch" style="rounded=0;whiteSpace=wrap;html=1;fontFamily=Helvetica;dashed=1;" vertex="1" parent="1">
          <mxGeometry x="60" y="684" width="100" height="50" as="geometry" />
        </mxCell>
        <mxCell id="1gjFQMWOfMvFAkVTUsUI-30" value="LLM Patch" style="rounded=0;whiteSpace=wrap;html=1;fontFamily=Helvetica;dashed=1;" vertex="1" parent="1">
          <mxGeometry x="60" y="745" width="100" height="40" as="geometry" />
        </mxCell>
        <mxCell id="1gjFQMWOfMvFAkVTUsUI-31" style="edgeStyle=orthogonalEdgeStyle;rounded=0;orthogonalLoop=1;jettySize=auto;html=1;exitX=0.5;exitY=1;exitDx=0;exitDy=0;" edge="1" parent="1" source="1gjFQMWOfMvFAkVTUsUI-28" target="1gjFQMWOfMvFAkVTUsUI-28">
          <mxGeometry relative="1" as="geometry" />
        </mxCell>
        <mxCell id="1gjFQMWOfMvFAkVTUsUI-32" value="&lt;div&gt;Run JMH&lt;/div&gt;&lt;div&gt;Benchmarks&lt;/div&gt;" style="text;html=1;align=center;verticalAlign=middle;resizable=0;points=[];autosize=1;strokeColor=none;fillColor=none;" vertex="1" parent="1">
          <mxGeometry x="65" y="590" width="90" height="40" as="geometry" />
        </mxCell>
        <mxCell id="1gjFQMWOfMvFAkVTUsUI-40" style="edgeStyle=orthogonalEdgeStyle;rounded=0;orthogonalLoop=1;jettySize=auto;html=1;exitX=0.5;exitY=1;exitDx=0;exitDy=0;exitPerimeter=0;entryX=0;entryY=0.5;entryDx=0;entryDy=0;" edge="1" parent="1" source="1gjFQMWOfMvFAkVTUsUI-1" target="1gjFQMWOfMvFAkVTUsUI-29">
          <mxGeometry relative="1" as="geometry">
            <mxPoint x="120" y="500" as="sourcePoint" />
            <mxPoint x="200" y="662" as="targetPoint" />
            <Array as="points">
              <mxPoint x="101" y="510" />
              <mxPoint x="40" y="510" />
              <mxPoint x="40" y="709" />
            </Array>
          </mxGeometry>
        </mxCell>
        <mxCell id="1gjFQMWOfMvFAkVTUsUI-45" value="&lt;div&gt;&lt;b&gt;Step 4:&lt;/b&gt;&lt;/div&gt;&lt;div&gt;Analysis&lt;/div&gt;" style="text;html=1;align=center;verticalAlign=middle;resizable=0;points=[];autosize=1;strokeColor=none;fillColor=none;" vertex="1" parent="1">
          <mxGeometry x="450" y="540" width="70" height="40" as="geometry" />
        </mxCell>
        <mxCell id="1gjFQMWOfMvFAkVTUsUI-53" value="RQ1: Efficiency of Generated Code" style="text;html=1;align=center;verticalAlign=middle;resizable=0;points=[];autosize=1;strokeColor=none;fillColor=none;" vertex="1" parent="1">
          <mxGeometry x="280" y="601.25" width="210" height="30" as="geometry" />
        </mxCell>
        <mxCell id="1gjFQMWOfMvFAkVTUsUI-57" style="edgeStyle=orthogonalEdgeStyle;rounded=0;orthogonalLoop=1;jettySize=auto;html=1;exitX=1;exitY=0.5;exitDx=0;exitDy=0;entryX=0;entryY=0.5;entryDx=0;entryDy=0;endArrow=block;endFill=1;startArrow=block;startFill=1;" edge="1" parent="1" source="1gjFQMWOfMvFAkVTUsUI-54" target="1gjFQMWOfMvFAkVTUsUI-55">
          <mxGeometry relative="1" as="geometry" />
        </mxCell>
        <mxCell id="1gjFQMWOfMvFAkVTUsUI-54" value="Original Code" style="rounded=0;whiteSpace=wrap;html=1;fontFamily=Helvetica;dashed=1;" vertex="1" parent="1">
          <mxGeometry x="290" y="637" width="80" height="40" as="geometry" />
        </mxCell>
        <mxCell id="1gjFQMWOfMvFAkVTUsUI-55" value="LLM Patch" style="rounded=0;whiteSpace=wrap;html=1;fontFamily=Helvetica;dashed=1;" vertex="1" parent="1">
          <mxGeometry x="390" y="637" width="100" height="40" as="geometry" />
        </mxCell>
        <mxCell id="1gjFQMWOfMvFAkVTUsUI-58" value="&lt;div&gt;&lt;br&gt;&lt;/div&gt;&lt;div&gt;&lt;br&gt;&lt;/div&gt;&lt;div&gt;&lt;br&gt;&lt;/div&gt;&lt;div&gt;&lt;br&gt;&lt;/div&gt;&lt;div&gt;&lt;br&gt;&lt;/div&gt;&lt;div&gt;&lt;br&gt;&lt;/div&gt;&lt;div&gt;&lt;br&gt;&lt;/div&gt;&lt;div&gt;&lt;br&gt;&lt;/div&gt;&lt;div&gt;&lt;br&gt;&lt;/div&gt;&lt;div&gt;&lt;br&gt;&lt;/div&gt;" style="rounded=1;whiteSpace=wrap;html=1;fontFamily=Helvetica;" vertex="1" parent="1">
          <mxGeometry x="520" y="589" width="225" height="111.5" as="geometry" />
        </mxCell>
        <mxCell id="1gjFQMWOfMvFAkVTUsUI-59" value="RQ2: Comparison to Humans" style="text;html=1;align=center;verticalAlign=middle;resizable=0;points=[];autosize=1;strokeColor=none;fillColor=none;" vertex="1" parent="1">
          <mxGeometry x="542.5" y="601.25" width="180" height="30" as="geometry" />
        </mxCell>
        <mxCell id="1gjFQMWOfMvFAkVTUsUI-62" style="edgeStyle=orthogonalEdgeStyle;rounded=0;orthogonalLoop=1;jettySize=auto;html=1;exitX=1;exitY=0.5;exitDx=0;exitDy=0;entryX=0;entryY=0.5;entryDx=0;entryDy=0;endArrow=block;endFill=1;startArrow=block;startFill=1;" edge="1" parent="1" source="1gjFQMWOfMvFAkVTUsUI-63" target="1gjFQMWOfMvFAkVTUsUI-64">
          <mxGeometry relative="1" as="geometry" />
        </mxCell>
        <mxCell id="1gjFQMWOfMvFAkVTUsUI-63" value="Developer&lt;div&gt;Patch&lt;/div&gt;" style="rounded=0;whiteSpace=wrap;html=1;fontFamily=Helvetica;dashed=1;" vertex="1" parent="1">
          <mxGeometry x="535" y="637" width="80" height="40" as="geometry" />
        </mxCell>
        <mxCell id="1gjFQMWOfMvFAkVTUsUI-64" value="LLM Patch" style="rounded=0;whiteSpace=wrap;html=1;fontFamily=Helvetica;dashed=1;" vertex="1" parent="1">
          <mxGeometry x="635" y="637" width="100" height="40" as="geometry" />
        </mxCell>
        <mxCell id="1gjFQMWOfMvFAkVTUsUI-67" value="&lt;div&gt;&lt;br&gt;&lt;/div&gt;&lt;div&gt;&lt;br&gt;&lt;/div&gt;&lt;div&gt;&lt;br&gt;&lt;/div&gt;&lt;div&gt;&lt;br&gt;&lt;/div&gt;&lt;div&gt;&lt;br&gt;&lt;/div&gt;&lt;div&gt;&lt;br&gt;&lt;/div&gt;&lt;div&gt;&lt;br&gt;&lt;/div&gt;&lt;div&gt;&lt;br&gt;&lt;/div&gt;&lt;div&gt;&lt;br&gt;&lt;/div&gt;&lt;div&gt;&lt;br&gt;&lt;/div&gt;" style="rounded=1;whiteSpace=wrap;html=1;fontFamily=Helvetica;" vertex="1" parent="1">
          <mxGeometry x="392.5" y="720" width="227.5" height="70" as="geometry" />
        </mxCell>
        <mxCell id="1gjFQMWOfMvFAkVTUsUI-68" value="RQ3: Types of LLM Improvements" style="text;html=1;align=center;verticalAlign=middle;resizable=0;points=[];autosize=1;strokeColor=none;fillColor=none;" vertex="1" parent="1">
          <mxGeometry x="399.5" y="720" width="210" height="30" as="geometry" />
        </mxCell>
        <mxCell id="1gjFQMWOfMvFAkVTUsUI-69" value="Qualitative Analysis" style="rounded=0;whiteSpace=wrap;html=1;fontFamily=Helvetica;dashed=1;" vertex="1" parent="1">
          <mxGeometry x="420" y="750" width="160" height="30" as="geometry" />
        </mxCell>
      </root>
    </mxGraphModel>
  </diagram>
</mxfile>
